<svg xmlns="http://www.w3.org/2000/svg" width="800" height="400" viewBox="0 0 800 400"><rect width="800" height="400" rx="8" fill="#1a1b26" stroke="#414868" stroke-width="2"/><rect width="800" height="32" rx="8" fill="#24283b"/><rect y="16" width="800" height="16" fill="#24283b"/><circle cx="20" cy="16" r="6" fill="#ff5f57"/><circle cx="40" cy="16" r="6" fill="#febc2e"/><circle cx="60" cy="16" r="6" fill="#28c840"/><text x="400" y="21" text-anchor="middle" fill="#a9b1d6" font-family="monospace" font-size="12">anets-terminal</text><g transform="translate(20,52)" font-family="monospace" font-size="14"><text fill="#7ee787">guest@anets</text><text fill="#fff">:</text><text fill="#7aa2f7">~</text><text fill="#fff">$ color</text><text x="0" y="30" fill="#a9b1d6" font-weight="bold">Standard Colors (0-7):</text><rect x="0" y="40" width="16" height="12" fill="#32344a"/><rect x="20" y="40" width="16" height="12" fill="#f7768e"/><rect x="40" y="40" width="16" height="12" fill="#9ece6a"/><rect x="60" y="40" width="16" height="12" fill="#e0af68"/><rect x="80" y="40" width="16" height="12" fill="#7aa2f7"/><rect x="100" y="40" width="16" height="12" fill="#bb9af7"/><rect x="120" y="40" width="16" height="12" fill="#7dcfff"/><rect x="140" y="40" width="16" height="12" fill="#a9b1d6"/><text x="0" y="68" fill="#a9b1d6" font-weight="bold">Bright Colors (8-15):</text><rect x="0" y="80" width="16" height="12" fill="#414868"/><rect x="20" y="80" width="16" height="12" fill="#ff7a93"/><rect x="40" y="80" width="16" height="12" fill="#b9f27c"/><rect x="60" y="80" width="16" height="12" fill="#ff9e64"/><rect x="80" y="80" width="16" height="12" fill="#7da6ff"/><rect x="100" y="80" width="16" height="12" fill="#c0a3f2"/><rect x="120" y="80" width="16" height="12" fill="#8cffec"/><rect x="140" y="80" width="16" height="12" fill="#c0caf5"/><text x="0" y="115" fill="#a9b1d6" font-weight="bold">256-Color Cube:</text><rect x="0" y="128" width="6" height="6" fill="#000000"/><rect x="6" y="128" width="6" height="6" fill="#0000af"/><rect x="12" y="128" width="6" height="6" fill="#0000ff"/><rect x="18" y="128" width="6" height="6" fill="#005f00"/><rect x="24" y="128" width="6" height="6" fill="#005faf"/><rect x="30" y="128" width="6" height="6" fill="#005fff"/><rect x="36" y="128" width="6" height="6" fill="#00af00"/><rect x="42" y="128" width="6" height="6" fill="#00afaf"/><rect x="48" y="128" width="6" height="6" fill="#00afff"/><rect x="54" y="128" width="6" height="6" fill="#00ff00"/><rect x="60" y="128" width="6" height="6" fill="#00ffaf"/><rect x="66" y="128" width="6" height="6" fill="#00ffff"/><rect x="0" y="138" width="6" height="6" fill="#af0000"/><rect x="6" y="138" width="6" height="6" fill="#af00af"/><rect x="12" y="138" width="6" height="6" fill="#af00ff"/><rect x="18" y="138" width="6" height="6" fill="#af5f00"/><rect x="24" y="138" width="6" height="6" fill="#af5faf"/><rect x="30" y="138" width="6" height="6" fill="#af5fff"/><rect x="36" y="138" width="6" height="6" fill="#afaf00"/><rect x="42" y="138" width="6" height="6" fill="#afafaf"/><rect x="48" y="138" width="6" height="6" fill="#afafff"/><rect x="54" y="138" width="6" height="6" fill="#afff00"/><rect x="60" y="138" width="6" height="6" fill="#afffaf"/><rect x="66" y="138" width="6" height="6" fill="#afffff"/><rect x="0" y="148" width="6" height="6" fill="#ff0000"/><rect x="6" y="148" width="6" height="6" fill="#ff00af"/><rect x="12" y="148" width="6" height="6" fill="#ff00ff"/><rect x="18" y="148" width="6" height="6" fill="#ff5f00"/><rect x="24" y="148" width="6" height="6" fill="#ff5faf"/><rect x="30" y="148" width="6" height="6" fill="#ff5fff"/><rect x="36" y="148" width="6" height="6" fill="#ffaf00"/><rect x="42" y="148" width="6" height="6" fill="#ffafaf"/><rect x="48" y="148" width="6" height="6" fill="#ffafff"/><rect x="54" y="148" width="6" height="6" fill="#ffff00"/><rect x="60" y="148" width="6" height="6" fill="#ffffaf"/><rect x="66" y="148" width="6" height="6" fill="#ffffff"/><text x="0" y="175" fill="#a9b1d6" font-weight="bold">True Color (RGB) Gradient:</text>
<rect x="0" y="188" width="4" height="16" fill="#ff0000"/><rect x="4" y="188" width="4" height="16" fill="#ff3300"/><rect x="8" y="188" width="4" height="16" fill="#ff6600"/><rect x="12" y="188" width="4" height="16" fill="#ff9900"/><rect x="16" y="188" width="4" height="16" fill="#ffcc00"/><rect x="20" y="188" width="4" height="16" fill="#ffff00"/><rect x="24" y="188" width="4" height="16" fill="#ccff00"/><rect x="28" y="188" width="4" height="16" fill="#99ff00"/><rect x="32" y="188" width="4" height="16" fill="#66ff00"/><rect x="36" y="188" width="4" height="16" fill="#33ff00"/><rect x="40" y="188" width="4" height="16" fill="#00ff00"/><rect x="44" y="188" width="4" height="16" fill="#00ff33"/><rect x="48" y="188" width="4" height="16" fill="#00ff66"/><rect x="52" y="188" width="4" height="16" fill="#00ff99"/><rect x="56" y="188" width="4" height="16" fill="#00ffcc"/><rect x="60" y="188" width="4" height="16" fill="#00ffff"/><rect x="64" y="188" width="4" height="16" fill="#00ccff"/><rect x="68" y="188" width="4" height="16" fill="#0099ff"/><rect x="72" y="188" width="4" height="16" fill="#0066ff"/><rect x="76" y="188" width="4" height="16" fill="#0033ff"/><rect x="80" y="188" width="4" height="16" fill="#0000ff"/><rect x="84" y="188" width="4" height="16" fill="#3300ff"/><rect x="88" y="188" width="4" height="16" fill="#6600ff"/><rect x="92" y="188" width="4" height="16" fill="#9900ff"/><rect x="96" y="188" width="4" height="16" fill="#cc00ff"/><rect x="100" y="188" width="4" height="16" fill="#ff00ff"/><rect x="104" y="188" width="4" height="16" fill="#ff00cc"/><rect x="108" y="188" width="4" height="16" fill="#ff0099"/><rect x="112" y="188" width="4" height="16" fill="#ff0066"/><rect x="116" y="188" width="4" height="16" fill="#ff0033"/><text x="0" y="230" fill="#7ee787">Full 16/256-color and true color (RGB) supported!</text><text x="0" y="285" fill="#7ee787">guest@anets</text><text fill="#fff">:</text><text fill="#7aa2f7">~</text><text fill="#fff">$</text><rect x="105" y="272" width="8" height="16" fill="#c0caf5"/></g></svg>
